<?xml version="1.0" encoding="UTF-8" standalone="no"?>
<svg
   xmlns:dc="http://purl.org/dc/elements/1.1/"
   xmlns:cc="http://creativecommons.org/ns#"
   xmlns:rdf="http://www.w3.org/1999/02/22-rdf-syntax-ns#"
   xmlns:svg="http://www.w3.org/2000/svg"
   xmlns="http://www.w3.org/2000/svg"
   xmlns:sodipodi="http://sodipodi.sourceforge.net/DTD/sodipodi-0.dtd"
   xmlns:inkscape="http://www.inkscape.org/namespaces/inkscape"
   width="64"
   height="64"
   shape-rendering="geometricPrecision"
   text-rendering="geometricPrecision"
   image-rendering="optimizeQuality"
   fill-rule="evenodd"
   clip-rule="evenodd"
   viewBox="0 0 640 640"
   id="svg2"
   version="1.1"
   inkscape:version="0.91 r13725"
   sodipodi:docname="sun.svg">
  <metadata
     id="metadata10">
    <rdf:RDF>
      <cc:Work
         rdf:about="">
        <dc:format>image/svg+xml</dc:format>
        <dc:type
           rdf:resource="http://purl.org/dc/dcmitype/StillImage" />
      </cc:Work>
    </rdf:RDF>
  </metadata>
  <defs
     id="defs8" />
  <sodipodi:namedview
     pagecolor="#ffffff"
     bordercolor="#666666"
     borderopacity="1"
     objecttolerance="10"
     gridtolerance="10"
     guidetolerance="10"
     inkscape:pageopacity="0"
     inkscape:pageshadow="2"
     inkscape:window-width="1364"
     inkscape:window-height="728"
     id="namedview6"
     showgrid="false"
     inkscape:zoom="3.6875"
     inkscape:cx="29.966102"
     inkscape:cy="32"
     inkscape:window-x="0"
     inkscape:window-y="19"
     inkscape:window-maximized="1"
     inkscape:current-layer="svg2" />
  <path
     d="M640 326.508l-67.23 45.343 41.364 71.21-78.297 16.807L550 542.794l-79.62-11.717-14.373 81.167-73.867-42.249-41.351 69.45-53.73-62.15-63.685 49.76-25.878-78.946-80.942 23.882 6.413-80.942-82.926-9.07 35.162-72.533-75.19-38.93 58.82-57.036-56.836-59.493 76.3-33.839L49.1 143.86l81.166-3.98V57.603l76.962 27.201L238.41 7.63l62.138 51.97L354.937.554l39.592 69.438 73.867-33.839 11.055 78.509 82.265-5.977-20.126 80.505 80.28 21.886-47.989 67.454 66.12 47.977zm-93.32-7.724c0-63.25-22.335-116.99-67.005-161.435-44.681-44.458-98.635-66.793-161.648-66.793-63.036 0-116.777 22.335-161.222 66.793-44.457 44.445-66.792 98.186-66.792 161.435 0 63.012 22.335 116.978 66.792 161.872 44.446 44.894 98.186 67.453 161.222 67.453 63.013 0 116.966-22.56 161.648-67.454 44.67-44.894 67.005-98.859 67.005-161.871z"
     id="path4"
     style="fill:#ffffff;fill-opacity:1"
     inkscape:export-xdpi="90"
     inkscape:export-ydpi="90" />
</svg>
