<?xml version="1.0" encoding="UTF-8" standalone="no"?>
<svg
   xmlns:dc="http://purl.org/dc/elements/1.1/"
   xmlns:cc="http://creativecommons.org/ns#"
   xmlns:rdf="http://www.w3.org/1999/02/22-rdf-syntax-ns#"
   xmlns:svg="http://www.w3.org/2000/svg"
   xmlns="http://www.w3.org/2000/svg"
   xmlns:sodipodi="http://sodipodi.sourceforge.net/DTD/sodipodi-0.dtd"
   xmlns:inkscape="http://www.inkscape.org/namespaces/inkscape"
   width="64"
   height="64"
   viewBox="0 0 640 640"
   shape-rendering="geometricPrecision"
   text-rendering="geometricPrecision"
   image-rendering="optimizeQuality"
   fill-rule="evenodd"
   clip-rule="evenodd"
   id="svg2"
   version="1.1"
   inkscape:version="0.91 r13725"
   sodipodi:docname="sand-clock-empty.svg">
  <metadata
     id="metadata10">
    <rdf:RDF>
      <cc:Work
         rdf:about="">
        <dc:format>image/svg+xml</dc:format>
        <dc:type
           rdf:resource="http://purl.org/dc/dcmitype/StillImage" />
      </cc:Work>
    </rdf:RDF>
  </metadata>
  <defs
     id="defs8" />
  <sodipodi:namedview
     pagecolor="#ffffff"
     bordercolor="#666666"
     borderopacity="1"
     objecttolerance="10"
     gridtolerance="10"
     guidetolerance="10"
     inkscape:pageopacity="0"
     inkscape:pageshadow="2"
     inkscape:window-width="1364"
     inkscape:window-height="728"
     id="namedview6"
     showgrid="false"
     inkscape:zoom="3.6875"
     inkscape:cx="32"
     inkscape:cy="32"
     inkscape:window-x="0"
     inkscape:window-y="19"
     inkscape:window-maximized="1"
     inkscape:current-layer="svg2" />
  <path
     d="M493.896 586.791c1.016-103.43-36.19-172.561-86.883-207.888-19.654-13.69-41.221-22.311-63.19-25.878-22.063-3.567-44.705-2.126-66.39 4.31-71.552 21.26-132.592 97.585-131.328 229.457h347.792zm-444.584 0h49.831c-1.334-143.458 63.39-232.467 143.482-266.661-80.15-34.193-144.899-123.309-143.482-266.932H49.312c-2.61 0-4.736-2.398-4.736-5.339V5.34c0-2.94 2.126-5.338 4.736-5.338h541.365c2.598 0 4.736 2.397 4.736 5.338v42.52c0 2.941-2.138 5.339-4.736 5.339h-49.843c1.17 120.899-44.694 203.317-107.01 246.747a201.832 201.832 0 0 1-36.437 20.185 202.618 202.618 0 0 1 36.438 20.197c62.268 43.395 108.108 125.718 107.009 246.464h49.843c2.598 0 4.736 2.41 4.736 5.35v42.51c0 2.94-2.138 5.35-4.736 5.35H49.312c-2.61 0-4.736-2.41-4.736-5.35v-42.51c0-2.94 2.126-5.35 4.736-5.35zM493.896 53.198h-347.78c-1.358 132.049 59.717 208.467 131.317 229.739 21.685 6.437 44.327 7.878 66.39 4.3 21.97-3.556 43.537-12.178 63.19-25.867 50.741-35.351 87.97-104.576 86.883-208.172z"
     fill-rule="nonzero"
     id="path4"
     style="fill:#ffffff;fill-opacity:1" />
</svg>
