<?xml version="1.0" encoding="UTF-8" standalone="no"?>
<svg
   xmlns:dc="http://purl.org/dc/elements/1.1/"
   xmlns:cc="http://creativecommons.org/ns#"
   xmlns:rdf="http://www.w3.org/1999/02/22-rdf-syntax-ns#"
   xmlns:svg="http://www.w3.org/2000/svg"
   xmlns="http://www.w3.org/2000/svg"
   xmlns:sodipodi="http://sodipodi.sourceforge.net/DTD/sodipodi-0.dtd"
   xmlns:inkscape="http://www.inkscape.org/namespaces/inkscape"
   viewBox="0 0 3299 3299"
   shape-rendering="geometricPrecision"
   text-rendering="geometricPrecision"
   image-rendering="optimizeQuality"
   fill-rule="evenodd"
   clip-rule="evenodd"
   id="svg2"
   version="1.1"
   inkscape:version="0.91 r13725"
   sodipodi:docname="clock-line.svg">
  <metadata
     id="metadata10">
    <rdf:RDF>
      <cc:Work
         rdf:about="">
        <dc:format>image/svg+xml</dc:format>
        <dc:type
           rdf:resource="http://purl.org/dc/dcmitype/StillImage" />
      </cc:Work>
    </rdf:RDF>
  </metadata>
  <defs
     id="defs8" />
  <sodipodi:namedview
     pagecolor="#ffffff"
     bordercolor="#666666"
     borderopacity="1"
     objecttolerance="10"
     gridtolerance="10"
     guidetolerance="10"
     inkscape:pageopacity="0"
     inkscape:pageshadow="2"
     inkscape:window-width="1364"
     inkscape:window-height="728"
     id="namedview6"
     showgrid="false"
     inkscape:zoom="0.071536829"
     inkscape:cx="1649.5"
     inkscape:cy="1649.5"
     inkscape:window-x="0"
     inkscape:window-y="19"
     inkscape:window-maximized="1"
     inkscape:current-layer="svg2" />
  <path
     d="M1650 0c456 0 868 185 1166 483 299 299 483 711 483 1166 0 456-185 868-483 1166-299 299-711 483-1166 483-456 0-868-185-1166-483C185 2516 1 2104 1 1649c0-456 185-868 483-1166C783 184 1195 0 1650 0zm-68 769c0-50 40-90 90-90s90 40 90 90v833l627 372c43 25 57 81 32 123-25 43-81 57-123 32l-667-395c-29-15-49-45-49-80V769zm1107-159c-266-266-633-430-1039-430S877 344 611 610s-430 633-430 1039 164 773 430 1039 633 430 1039 430 773-164 1039-430 430-633 430-1039-164-773-430-1039z"
     fill-rule="nonzero"
     id="path4"
     style="fill:#ffffff;fill-opacity:1" />
</svg>
